<svg width="64" height="55" viewBox="0 0 64 55" fill="none" xmlns="http://www.w3.org/2000/svg">
<path d="M22.2811 22.3099C22.0977 21.5539 22.1387 20.7608 22.3991 20.0278L28.2307 3.61092C29.4911 0.0628262 34.5089 0.0628285 35.7693 3.61092L41.6009 20.0278C41.8613 20.7608 41.9023 21.5539 41.7189 22.3099L35 50C34.1072 52.9761 29.8928 52.9761 29 50L22.2811 22.3099Z" fill="url(#paint0_linear_0_1)"/>
<path d="M0.548355 12.2387C0.00150573 8.62262 4.19351 6.2296 7.02931 8.53908L25.3076 23.4249C26.0751 24.05 26.5837 24.9375 26.7348 25.9158L30.3643 49.4116C30.9295 53.07 26.6498 55.4671 23.8255 53.0742L5.35546 37.4255C4.61729 36.8001 4.13081 35.9283 3.98615 34.9717L0.548355 12.2387Z" fill="#B6E1FC"/>
<path d="M63.4516 12.2388C63.9985 8.62263 59.8065 6.2296 56.9707 8.53908L38.6924 23.4249C37.9249 24.05 37.4163 24.9375 37.2652 25.9158L33.6357 49.4116C33.0705 53.07 37.3502 55.4671 40.1745 53.0742L58.6445 37.4255C59.3827 36.8001 59.8692 35.9283 60.0139 34.9717L63.4516 12.2388Z" fill="#B6E1FC"/>
<defs>
<linearGradient id="paint0_linear_0_1" x1="32" y1="60" x2="33.5" y2="-7" gradientUnits="userSpaceOnUse">
<stop stop-color="#092739"/>
<stop offset="1" stop-color="#27668D" stop-opacity="0.62"/>
</linearGradient>
</defs>
</svg>
